# xmcd
#
# Track frame offsets:
#	150
#	23680
#	36902
#	51223
#	63957
#	80599
#	97186
#	113589
#	126339
#	142737
#	161179
#	174089
#	193276
#	208411
#	225979
#	246360
#
# Disc length: 3345 seconds
# Revision: 0
# Processed by: cddbd v1.5.2PL0 Copyright (c) Steve Scherf et al.
# Submitted via: dBpowerAMP V12.0
#
DISCID=de0d0f10
DTITLE=Exile - Hits
DYEAR=2018
DGENRE=Pop/Rock
TTITLE0=Kiss You All Over
TTITLE1=Woke Up In Love
TTITLE2=I Don’t Want To Be A Memory
TTITLE3=Give Me One More Chance
TTITLE4=She’s A Miracle
TTITLE5=Crazy For Your Love
TTITLE6=Hang On To Your Heart
TTITLE7=I Could Get Used To You
TTITLE8=She’s Too Good To Be True
TTITLE9=Super Love
TTITLE10=It’ll Be Me
TTITLE11=I Can’t Get Close Enough
TTITLE12=Keep It In The Middle Of The Road
TTITLE13=Nobody’s Talking
TTITLE14=Yet
TTITLE15=Fun Bonus Track
EXTD=
EXTT0=
EXTT1=
EXTT2=
EXTT3=
EXTT4=
EXTT5=
EXTT6=
EXTT7=
EXTT8=
EXTT9=
EXTT10=
EXTT11=
EXTT12=
EXTT13=
EXTT14=
EXTT15=
PLAYORDER=
